<?xml version="1.0" encoding="UTF-8" standalone="no"?>
<!-- Created with Inkscape (http://www.inkscape.org/) -->

<svg
   width="211.66667mm"
   height="211.66667mm"
   viewBox="0 0 211.66667 211.66667"
   version="1.1"
   id="svg5"
   xml:space="preserve"
   xmlns="http://www.w3.org/2000/svg"
   xmlns:svg="http://www.w3.org/2000/svg"><defs
     id="defs2" /><g
     id="layer1"
     transform="translate(0.09139803,-53.134408)"><g
       clip-rule="evenodd"
       fill-rule="evenodd"
       id="g1117"
       transform="matrix(0.84666667,0,0,0.84666667,-0.09139803,53.134408)"><path
         d="m 25,0 h 200 c 13.808,0 25,11.192 25,25 v 200 c 0,13.808 -11.192,25 -25,25 H 25 C 11.192,250 0,238.808 0,225 V 25 C 0,11.192 11.192,0 25,0 Z"
         fill="#010101"
         id="path1099" /><ellipse
         cx="154.811"
         cy="216.338"
         fill="#010101"
         rx="6.6989999"
         ry="6.6430001"
         id="ellipse1105" /><path
         d="m 167.90274,95.793283 c 12.43229,8.882327 27.66366,14.109017 44.11282,14.109017 V 78.263799 a 44.599023,44.599023 0 0 1 -9.26401,-0.969 v 24.904341 c -16.44802,0 -31.67712,-5.226698 -44.11282,-14.109015 V 152.6542 c 0,32.29851 -26.19596,58.4797 -58.50924,58.4797 -12.056274,0 -23.262829,-3.64312 -32.572279,-9.89108 10.624928,10.85781 25.441662,17.59424 41.834019,17.59424 32.31555,0 58.51264,-26.18119 58.51264,-58.48084 V 95.793283 Z m 11.42807,-31.919087 c -6.3536,-6.9375 -10.52496,-15.90388 -11.42807,-25.816541 v -4.069121 h -8.77894 c 2.2095,12.598145 9.7468,23.361663 20.20701,29.885662 z M 87.994833,176.4589 a 26.633319,26.633319 0 0 1 -5.459575,-16.19469 c 0,-14.77244 11.982435,-26.74919 26.765092,-26.74919 a 26.809397,26.809397 0 0 1 8.11893,1.253 v -32.34509 a 59.037474,59.037474 0 0 0 -9.2606,-0.53277 v 25.17583 a 26.830981,26.830981 0 0 0 -8.12234,-1.253 c -14.782655,0 -26.763956,11.97676 -26.763956,26.75033 0,10.44544 5.988947,19.49021 14.722449,23.89558 z"
         fill="#ee1d52"
         id="path1109"
         style="stroke-width:1.13599" /><path
         d="m 158.63873,88.090125 c 12.4357,8.882317 27.6648,14.109015 44.11282,14.109015 V 77.294799 C 193.57046,75.340893 185.44245,70.544738 179.33081,63.874196 168.8706,57.350197 161.3333,46.586679 159.1238,33.988534 H 136.06431 V 160.35509 c -0.0523,14.73153 -12.01425,26.65944 -26.7651,26.65944 -8.6926,0 -16.415067,-4.14069 -21.305513,-10.55563 -8.733502,-4.40537 -14.722449,-13.45014 -14.722449,-23.89558 0,-14.77357 11.981301,-26.75033 26.763952,-26.75033 2.83203,0 5.56182,0.44077 8.12234,1.253 v -25.17583 c -31.745276,0.65546 -57.276683,26.58105 -57.276683,58.46606 0,15.91638 6.358144,30.34574 16.676354,40.88774 9.30945,6.24795 20.516005,9.89108 32.572279,9.89108 32.31328,0 58.50924,-26.18233 58.50924,-58.4797 z"
         fill="#ffffff"
         id="path1111"
         style="stroke-width:1.13599" /><path
         d="M 202.75155,77.294799 V 70.560642 A 44.121907,44.121907 0 0 1 179.33081,63.87306 44.244594,44.244594 0 0 0 202.75155,77.294799 Z M 159.1238,33.988534 a 44.898925,44.898925 0 0 1 -0.48507,-3.632901 V 26.286512 H 126.79916 V 152.6542 c -0.0511,14.7304 -12.01197,26.65831 -26.76396,26.65831 -4.331527,0 -8.419963,-1.02694 -12.041503,-2.85361 4.890446,6.41494 12.612913,10.55563 21.305513,10.55563 14.74972,0 26.71284,-11.92791 26.7651,-26.65944 V 33.988534 Z m -50.96512,67.901626 v -7.169253 a 59.037474,59.037474 0 0 0 -8.02805,-0.54414 c -32.316685,0 -58.512647,26.182333 -58.512647,58.477433 0,20.24791 10.29549,38.09206 25.940364,48.58862 -10.31821,-10.542 -16.676354,-24.97136 -16.676354,-40.88773 0,-31.88388 25.530271,-57.80947 57.276687,-58.46493 z"
         fill="#69c9d0"
         id="path1113"
         style="stroke-width:1.13599" /></g></g></svg>
